<?xml version="1.0" encoding="UTF-8"?>
<svg id="Calque_1" data-name="Calque 1" xmlns="http://www.w3.org/2000/svg" version="1.1" viewBox="0 0 300 300">
  <defs>
    <style>
      .cls-1 {
        fill: #fff;
        stroke-width: 0px;
      }
    </style>
  </defs>
  <path class="cls-1" d="M235.75,10.53H65.18c-29.73,0-53.82,24.1-53.82,53.82v170.57c0,29.73,24.1,53.82,53.82,53.82h170.57c29.73,0,53.82-24.1,53.82-53.82V64.35c0-29.73-24.1-53.82-53.82-53.82ZM215.57,162.34c4.12,5.71,6.17,12.17,6.17,19.38,0,10.83-2.38,19.75-7.15,26.75-4.76,7.01-11.66,12.24-20.68,15.7-9.02,3.47-20.11,5.2-33.24,5.2h-74.07c-1.59,0-2.96-.57-4.11-1.73-1.16-1.15-1.73-2.53-1.73-4.12v-6.66c35.69-7.44,68.94-28.43,82.58-62.99.37-.93,1.43-1.36,2.33-.92l9.72,4.75c3.33,1.63,7.19-.9,7.03-4.61l-2.15-47.7c-.18-3.87-4.55-6-7.71-3.77l-38.94,27.63c-3.03,2.15-2.65,6.75.68,8.38l8.74,4.27c.96.47,1.28,1.7.64,2.56-14.85,20.11-38.84,28.74-62.92,28.65v-95.9c0-1.59.58-2.96,1.73-4.12,1.15-1.16,2.52-1.73,4.11-1.73h74.07c13.14,0,24.22,1.73,33.24,5.2,9.02,3.47,15.92,8.7,20.68,15.7,4.77,7,7.15,15.92,7.15,26.75,0,7.22-2.06,13.68-6.17,19.39-4.09,5.67-8.86,9.66-14.31,11.98,5.45,2.32,10.22,6.31,14.31,11.98Z"/>
</svg>