<?xml version="1.0" encoding="UTF-8"?>
<svg id="Calque_1" data-name="Calque 1" xmlns="http://www.w3.org/2000/svg" xmlns:xlink="http://www.w3.org/1999/xlink" viewBox="0 0 968.84765625 968.84765625">
  <defs>
    <style>
      .cls-1 {
        clip-path: url(#clippath-2);
      }

      .cls-2 {
        fill: none;
      }

      .cls-2, .cls-3 {
        stroke-width: 0px;
      }

      .cls-4 {
        clip-path: url(#clippath-1);
      }

      .cls-3 {
        fill: #fff;
      }

      .cls-5 {
        clip-path: url(#clippath);
      }
    </style>
    <clipPath id="clippath">
      <rect class="cls-2" x="5.0002033167" y="5.0002033167" width="958.8472496167" height="958.8472496166" rx="198.0561251808" ry="198.0561251808"/>
    </clipPath>
    <clipPath id="clippath-1">
      <rect class="cls-2" y="-.0003662109" width="968.8480224609" height="968.8480224609"/>
    </clipPath>
    <clipPath id="clippath-2">
      <rect class="cls-2" y="-.0003662109" width="968.8480224609" height="968.8480224609"/>
    </clipPath>
  </defs>

  <path class="cls-3" d="m240.2040307192,563.2107701018c83.4494940172.3071333043,166.5428050829-29.5838133282,217.9848831149-99.2407299402,2.1921066588-2.9686496702,1.0827594999-7.2460539432-2.2333633714-8.8656091138l-30.2838022173-14.7900730325c-11.547295428-5.6397926022-12.8473402804-21.5832199536-2.3667600752-29.0195131824l134.9053242867-95.7132810193c10.9279863321-7.7530530994,26.1040388307-.3410554902,26.7082204652,13.0435388689l7.4582968088,165.2423018225c.579427607,12.8377137142-12.7937065541,21.6148501-24.3410019821,15.9750574977l-33.6723535395-16.4444672047c-3.113048164-1.5205390605-6.8046071192-.0261292513-8.0762306808,3.1964784049-47.2444367366,119.7320222357-162.4322612916,192.4474364696-286.0832128093,218.2301313505v23.0574598146c0,5.5091463458,1.9954496624,10.2587107733,6.0019348566,14.2560278091,4.0005258912,4.0096940495,8.7468814633,6.0019348567,14.2560278092,6.0019348567h256.5984155912c45.5116548105,0,83.9051514866-6.0019348567,115.17132187-18.0062629777,31.2524181459-12.0038697133,55.1437219614-30.1270267098,71.6509910507-54.3946834252,16.5072690893-24.2548212936,24.760903634-55.1473892248,24.760903634-92.6648683716,0-25.0011093824-7.1277847006-47.3805838879-21.3833541019-67.1517173459-14.2555694012-19.7514219176-30.8925679311-33.630638419-49.8949513124-41.6381079123v.2788822478c19.0023833813-8.0074694933,35.6393819111-21.8866859947,49.8949513124-41.6381079123,14.2555694012-19.771133458,21.3833541019-42.1506079635,21.3833541019-67.1517173459,0-37.5174791468-8.2536345447-68.410047078-24.760903634-92.6648683716-16.5072690893-24.2676567154-40.3985729049-42.3908137119-71.6509910507-54.3946834252-31.2661703834-12.0043281211-69.6596670595-18.0062629778-115.17132187-18.0062629778h-256.5984155912c-5.5091463459,0-10.255501918,1.9922408071-14.2560278092,6.0019348567-4.0064851941,3.9973170358-6.0019348566,8.7468814633-6.0019348566,14.2560278091v332.2451782197Z"/>
</svg>